<?xml version="1.0" encoding="UTF-8" standalone="no"?>
<!DOCTYPE svg PUBLIC "-//W3C//DTD SVG 1.1//EN"
 "http://www.w3.org/Graphics/SVG/1.1/DTD/svg11.dtd">
<!-- Generated by graphviz version 2.42.4 (0)
 -->
<!-- Title: G Pages: 1 -->
<svg width="958pt" height="303pt"
 viewBox="0.00 0.00 958.00 303.00" xmlns="http://www.w3.org/2000/svg" xmlns:xlink="http://www.w3.org/1999/xlink">
<g id="graph0" class="graph" transform="scale(1 1) rotate(0) translate(4 299)">
<title>G</title>
<polygon fill="white" stroke="transparent" points="-4,4 -4,-299 954,-299 954,4 -4,4"/>
<!-- controller -->
<g id="node1" class="node">
<title>controller</title>
<polygon fill="none" stroke="black" points="0,-112 0,-150 247,-150 247,-112 0,-112"/>
<text text-anchor="middle" x="58.5" y="-127.3" font-family="Arial" font-size="14.00">OrdersController</text>
<polyline fill="none" stroke="black" points="117,-112 117,-150 "/>
<text text-anchor="start" x="125" y="-134.8" font-family="Arial" font-size="14.00">+ createOrder()</text>
<text text-anchor="start" x="125" y="-119.8" font-family="Arial" font-size="14.00">+ getOrderStatus()</text>
</g>
<!-- create -->
<g id="node2" class="node">
<title>create</title>
<polygon fill="none" stroke="black" points="284,-113 284,-149 578,-149 578,-113 284,-113"/>
<text text-anchor="middle" x="358" y="-127.3" font-family="Arial" font-size="14.00">CreateOrderUseCase</text>
<polyline fill="none" stroke="black" points="432,-113 432,-149 "/>
<text text-anchor="start" x="440" y="-127.3" font-family="Arial" font-size="14.00">+ execute(command)</text>
</g>
<!-- controller&#45;&gt;create -->
<g id="edge1" class="edge">
<title>controller&#45;&gt;create</title>
<path fill="none" stroke="black" d="M247.44,-131C256.17,-131 265.04,-131 273.92,-131"/>
<polygon fill="black" stroke="black" points="273.96,-134.5 283.96,-131 273.96,-127.5 273.96,-134.5"/>
</g>
<!-- status -->
<g id="node3" class="node">
<title>status</title>
<polygon fill="none" stroke="black" points="283,-209 283,-245 579,-245 579,-209 283,-209"/>
<text text-anchor="middle" x="367" y="-223.3" font-family="Arial" font-size="14.00">GetOrderStatusUseCase</text>
<polyline fill="none" stroke="black" points="451,-209 451,-245 "/>
<text text-anchor="start" x="459" y="-223.3" font-family="Arial" font-size="14.00">+ execute(orderId)</text>
</g>
<!-- controller&#45;&gt;status -->
<g id="edge2" class="edge">
<title>controller&#45;&gt;status</title>
<path fill="none" stroke="black" d="M185.22,-150.08C236.5,-166.19 309.83,-189.24 362.84,-205.9"/>
<polygon fill="black" stroke="black" points="361.91,-209.27 372.5,-208.93 364,-202.59 361.91,-209.27"/>
</g>
<!-- shared -->
<g id="node8" class="node">
<title>shared</title>
<path fill="none" stroke="black" d="M874,-38C874,-38 691,-38 691,-38 685,-38 679,-32 679,-26 679,-26 679,-12 679,-12 679,-6 685,0 691,0 691,0 874,0 874,0 880,0 886,-6 886,-12 886,-12 886,-26 886,-26 886,-32 880,-38 874,-38"/>
<text text-anchor="middle" x="782.5" y="-22.8" font-family="Arial" font-size="14.00">@casecellshop/shared</text>
<text text-anchor="middle" x="782.5" y="-7.8" font-family="Arial" font-size="14.00">DTOs + schemas + error codes</text>
</g>
<!-- controller&#45;&gt;shared -->
<g id="edge8" class="edge">
<title>controller&#45;&gt;shared</title>
<path fill="none" stroke="black" d="M231.48,-111.98C248.7,-108.96 266.34,-105.88 283,-103 415.45,-80.13 567.84,-54.56 668.9,-37.71"/>
<polygon fill="black" stroke="black" points="669.54,-41.15 678.83,-36.05 668.39,-34.24 669.54,-41.15"/>
</g>
<!-- orderPort -->
<g id="node4" class="node">
<title>orderPort</title>
<polygon fill="none" stroke="black" points="653.5,-241.5 653.5,-294.5 911.5,-294.5 911.5,-241.5 653.5,-241.5"/>
<text text-anchor="middle" x="724" y="-264.3" font-family="Arial" font-size="14.00">OrderRepositoryPort</text>
<polyline fill="none" stroke="black" points="794.5,-241.5 794.5,-294.5 "/>
<text text-anchor="start" x="802.5" y="-279.3" font-family="Arial" font-size="14.00">+ findById()</text>
<text text-anchor="start" x="802.5" y="-264.3" font-family="Arial" font-size="14.00">+ createOrder()</text>
<text text-anchor="start" x="802.5" y="-249.3" font-family="Arial" font-size="14.00">+ updateStatus()</text>
</g>
<!-- create&#45;&gt;orderPort -->
<g id="edge3" class="edge">
<title>create&#45;&gt;orderPort</title>
<path fill="none" stroke="black" d="M479.18,-149.05C508.95,-161.41 547.57,-179.29 579,-200 596.87,-211.78 595.91,-222.31 615,-232 624.09,-236.62 633.76,-240.64 643.67,-244.15"/>
<polygon fill="black" stroke="black" points="642.65,-247.5 653.25,-247.36 644.88,-240.87 642.65,-247.5"/>
</g>
<!-- productPort -->
<g id="node5" class="node">
<title>productPort</title>
<polygon fill="none" stroke="black" points="620,-169.5 620,-222.5 945,-222.5 945,-169.5 620,-169.5"/>
<text text-anchor="middle" x="696" y="-192.3" font-family="Arial" font-size="14.00">ProductRepositoryPort</text>
<polyline fill="none" stroke="black" points="772,-169.5 772,-222.5 "/>
<text text-anchor="start" x="780" y="-207.3" font-family="Arial" font-size="14.00">+ findMany()</text>
<text text-anchor="start" x="780" y="-192.3" font-family="Arial" font-size="14.00">+ reserveStock()</text>
<text text-anchor="start" x="780" y="-177.3" font-family="Arial" font-size="14.00">+ releaseReservedStock()</text>
</g>
<!-- create&#45;&gt;productPort -->
<g id="edge4" class="edge">
<title>create&#45;&gt;productPort</title>
<path fill="none" stroke="black" d="M528.89,-149.02C559.87,-154.78 594.96,-161.31 628.91,-167.62"/>
<polygon fill="black" stroke="black" points="628.45,-171.1 638.93,-169.48 629.73,-164.21 628.45,-171.1"/>
</g>
<!-- idemPort -->
<g id="node6" class="node">
<title>idemPort</title>
<polygon fill="none" stroke="black" points="615,-112 615,-150 950,-150 950,-112 615,-112"/>
<text text-anchor="middle" x="707" y="-127.3" font-family="Arial" font-size="14.00">IdempotencyRepositoryPort</text>
<polyline fill="none" stroke="black" points="799,-112 799,-150 "/>
<text text-anchor="start" x="807" y="-134.8" font-family="Arial" font-size="14.00">+ findByUserAndKey()</text>
<text text-anchor="start" x="807" y="-119.8" font-family="Arial" font-size="14.00">+ create()</text>
</g>
<!-- create&#45;&gt;idemPort -->
<g id="edge5" class="edge">
<title>create&#45;&gt;idemPort</title>
<path fill="none" stroke="black" d="M578.19,-131C587.03,-131 595.96,-131 604.9,-131"/>
<polygon fill="black" stroke="black" points="604.99,-134.5 614.99,-131 604.99,-127.5 604.99,-134.5"/>
</g>
<!-- erpPort -->
<g id="node7" class="node">
<title>erpPort</title>
<polygon fill="none" stroke="black" points="664.5,-57 664.5,-93 900.5,-93 900.5,-57 664.5,-57"/>
<text text-anchor="middle" x="722.5" y="-71.3" font-family="Arial" font-size="14.00">ErpGatewayPort</text>
<polyline fill="none" stroke="black" points="780.5,-57 780.5,-93 "/>
<text text-anchor="start" x="788.5" y="-71.3" font-family="Arial" font-size="14.00">+ processOrder()</text>
</g>
<!-- create&#45;&gt;erpPort -->
<g id="edge6" class="edge">
<title>create&#45;&gt;erpPort</title>
<path fill="none" stroke="black" d="M544.51,-112.97C581.05,-107.12 621.77,-100.59 659.01,-94.63"/>
<polygon fill="black" stroke="black" points="659.58,-98.08 668.9,-93.04 658.48,-91.17 659.58,-98.08"/>
</g>
<!-- create&#45;&gt;shared -->
<g id="edge9" class="edge">
<title>create&#45;&gt;shared</title>
<path fill="none" stroke="black" d="M474.81,-113C504.33,-100.36 544.34,-82.78 579,-66 595.28,-58.11 597.86,-52.8 615,-47 632.18,-41.19 650.79,-36.55 669.12,-32.86"/>
<polygon fill="black" stroke="black" points="669.81,-36.29 678.97,-30.96 668.49,-29.42 669.81,-36.29"/>
</g>
<!-- status&#45;&gt;orderPort -->
<g id="edge7" class="edge">
<title>status&#45;&gt;orderPort</title>
<path fill="none" stroke="black" d="M579.21,-244.27C600.46,-246.76 622.28,-249.32 643.35,-251.79"/>
<polygon fill="black" stroke="black" points="642.97,-255.27 653.3,-252.96 643.78,-248.32 642.97,-255.27"/>
</g>
</g>
</svg>
