<?xml version="1.0" encoding="UTF-8" standalone="no"?>
<!DOCTYPE svg PUBLIC "-//W3C//DTD SVG 1.1//EN"
 "http://www.w3.org/Graphics/SVG/1.1/DTD/svg11.dtd">
<!-- Generated by graphviz version 2.42.4 (0)
 -->
<!-- Title: G Pages: 1 -->
<svg width="853pt" height="917pt"
 viewBox="0.00 0.00 853.00 917.00" xmlns="http://www.w3.org/2000/svg" xmlns:xlink="http://www.w3.org/1999/xlink">
<g id="graph0" class="graph" transform="scale(1 1) rotate(0) translate(4 913)">
<title>G</title>
<polygon fill="white" stroke="transparent" points="-4,4 -4,-913 849,-913 849,4 -4,4"/>
<!-- start -->
<g id="node1" class="node">
<title>start</title>
<path fill="none" stroke="black" d="M711,-909C711,-909 635,-909 635,-909 629,-909 623,-903 623,-897 623,-897 623,-885 623,-885 623,-879 629,-873 635,-873 635,-873 711,-873 711,-873 717,-873 723,-879 723,-885 723,-885 723,-897 723,-897 723,-903 717,-909 711,-909"/>
<text text-anchor="middle" x="673" y="-887.3" font-family="Arial" font-size="14.00">POST /orders</text>
</g>
<!-- auth -->
<g id="node2" class="node">
<title>auth</title>
<path fill="none" stroke="black" d="M714.5,-836C714.5,-836 631.5,-836 631.5,-836 625.5,-836 619.5,-830 619.5,-824 619.5,-824 619.5,-812 619.5,-812 619.5,-806 625.5,-800 631.5,-800 631.5,-800 714.5,-800 714.5,-800 720.5,-800 726.5,-806 726.5,-812 726.5,-812 726.5,-824 726.5,-824 726.5,-830 720.5,-836 714.5,-836"/>
<text text-anchor="middle" x="673" y="-814.3" font-family="Arial" font-size="14.00">Authenticated?</text>
</g>
<!-- start&#45;&gt;auth -->
<g id="edge1" class="edge">
<title>start&#45;&gt;auth</title>
<path fill="none" stroke="black" d="M673,-872.81C673,-864.79 673,-855.05 673,-846.07"/>
<polygon fill="black" stroke="black" points="676.5,-846.03 673,-836.03 669.5,-846.03 676.5,-846.03"/>
</g>
<!-- key -->
<g id="node3" class="node">
<title>key</title>
<path fill="none" stroke="black" d="M656.5,-749C656.5,-749 501.5,-749 501.5,-749 495.5,-749 489.5,-743 489.5,-737 489.5,-737 489.5,-725 489.5,-725 489.5,-719 495.5,-713 501.5,-713 501.5,-713 656.5,-713 656.5,-713 662.5,-713 668.5,-719 668.5,-725 668.5,-725 668.5,-737 668.5,-737 668.5,-743 662.5,-749 656.5,-749"/>
<text text-anchor="middle" x="579" y="-727.3" font-family="Arial" font-size="14.00">Idempotency&#45;Key present?</text>
</g>
<!-- auth&#45;&gt;key -->
<g id="edge3" class="edge">
<title>auth&#45;&gt;key</title>
<path fill="none" stroke="black" d="M653.98,-799.8C640.09,-787.24 621.08,-770.05 605.67,-756.12"/>
<polygon fill="black" stroke="black" points="607.76,-753.29 597.99,-749.18 603.06,-758.48 607.76,-753.29"/>
<text text-anchor="middle" x="644.5" y="-770.8" font-family="Times,serif" font-size="14.00">Yes</text>
</g>
<!-- authfail -->
<g id="node12" class="node">
<title>authfail</title>
<path fill="none" stroke="black" d="M833,-749C833,-749 699,-749 699,-749 693,-749 687,-743 687,-737 687,-737 687,-725 687,-725 687,-719 693,-713 699,-713 699,-713 833,-713 833,-713 839,-713 845,-719 845,-725 845,-725 845,-737 845,-737 845,-743 839,-749 833,-749"/>
<text text-anchor="middle" x="766" y="-727.3" font-family="Arial" font-size="14.00">401 AUTH_REQUIRED</text>
</g>
<!-- auth&#45;&gt;authfail -->
<g id="edge2" class="edge">
<title>auth&#45;&gt;authfail</title>
<path fill="none" stroke="black" d="M691.82,-799.8C705.56,-787.24 724.37,-770.05 739.61,-756.12"/>
<polygon fill="black" stroke="black" points="742.19,-758.51 747.21,-749.18 737.47,-753.34 742.19,-758.51"/>
<text text-anchor="middle" x="736.5" y="-770.8" font-family="Times,serif" font-size="14.00">No</text>
</g>
<!-- hash -->
<g id="node4" class="node">
<title>hash</title>
<path fill="none" stroke="black" d="M535.5,-662C535.5,-662 392.5,-662 392.5,-662 386.5,-662 380.5,-656 380.5,-650 380.5,-650 380.5,-638 380.5,-638 380.5,-632 386.5,-626 392.5,-626 392.5,-626 535.5,-626 535.5,-626 541.5,-626 547.5,-632 547.5,-638 547.5,-638 547.5,-650 547.5,-650 547.5,-656 541.5,-662 535.5,-662"/>
<text text-anchor="middle" x="464" y="-640.3" font-family="Arial" font-size="14.00">Hash normalized request</text>
</g>
<!-- key&#45;&gt;hash -->
<g id="edge5" class="edge">
<title>key&#45;&gt;hash</title>
<path fill="none" stroke="black" d="M555.73,-712.8C538.35,-699.95 514.41,-682.26 495.34,-668.17"/>
<polygon fill="black" stroke="black" points="497.36,-665.3 487.24,-662.18 493.2,-670.93 497.36,-665.3"/>
<text text-anchor="middle" x="541.5" y="-683.8" font-family="Times,serif" font-size="14.00">Yes</text>
</g>
<!-- keyfail -->
<g id="node13" class="node">
<title>keyfail</title>
<path fill="none" stroke="black" d="M810.5,-662C810.5,-662 577.5,-662 577.5,-662 571.5,-662 565.5,-656 565.5,-650 565.5,-650 565.5,-638 565.5,-638 565.5,-632 571.5,-626 577.5,-626 577.5,-626 810.5,-626 810.5,-626 816.5,-626 822.5,-632 822.5,-638 822.5,-638 822.5,-650 822.5,-650 822.5,-656 816.5,-662 810.5,-662"/>
<text text-anchor="middle" x="694" y="-640.3" font-family="Arial" font-size="14.00">400 IDEMPOTENCY_KEY_REQUIRED</text>
</g>
<!-- key&#45;&gt;keyfail -->
<g id="edge4" class="edge">
<title>key&#45;&gt;keyfail</title>
<path fill="none" stroke="black" d="M602.27,-712.8C619.65,-699.95 643.59,-682.26 662.66,-668.17"/>
<polygon fill="black" stroke="black" points="664.8,-670.93 670.76,-662.18 660.64,-665.3 664.8,-670.93"/>
<text text-anchor="middle" x="654.5" y="-683.8" font-family="Times,serif" font-size="14.00">No</text>
</g>
<!-- existing -->
<g id="node5" class="node">
<title>existing</title>
<path fill="none" stroke="black" d="M540.5,-589C540.5,-589 387.5,-589 387.5,-589 381.5,-589 375.5,-583 375.5,-577 375.5,-577 375.5,-565 375.5,-565 375.5,-559 381.5,-553 387.5,-553 387.5,-553 540.5,-553 540.5,-553 546.5,-553 552.5,-559 552.5,-565 552.5,-565 552.5,-577 552.5,-577 552.5,-583 546.5,-589 540.5,-589"/>
<text text-anchor="middle" x="464" y="-567.3" font-family="Arial" font-size="14.00">Existing idempotency key?</text>
</g>
<!-- hash&#45;&gt;existing -->
<g id="edge6" class="edge">
<title>hash&#45;&gt;existing</title>
<path fill="none" stroke="black" d="M464,-625.81C464,-617.79 464,-608.05 464,-599.07"/>
<polygon fill="black" stroke="black" points="467.5,-599.03 464,-589.03 460.5,-599.03 467.5,-599.03"/>
</g>
<!-- tx -->
<g id="node6" class="node">
<title>tx</title>
<path fill="none" stroke="black" d="M362.5,-502C362.5,-502 249.5,-502 249.5,-502 243.5,-502 237.5,-496 237.5,-490 237.5,-490 237.5,-478 237.5,-478 237.5,-472 243.5,-466 249.5,-466 249.5,-466 362.5,-466 362.5,-466 368.5,-466 374.5,-472 374.5,-478 374.5,-478 374.5,-490 374.5,-490 374.5,-496 368.5,-502 362.5,-502"/>
<text text-anchor="middle" x="306" y="-480.3" font-family="Arial" font-size="14.00">Start DB transaction</text>
</g>
<!-- existing&#45;&gt;tx -->
<g id="edge9" class="edge">
<title>existing&#45;&gt;tx</title>
<path fill="none" stroke="black" d="M432.03,-552.8C407.42,-539.56 373.26,-521.18 346.7,-506.9"/>
<polygon fill="black" stroke="black" points="348.12,-503.69 337.66,-502.03 344.8,-509.85 348.12,-503.69"/>
<text text-anchor="middle" x="405.5" y="-523.8" font-family="Times,serif" font-size="14.00">No</text>
</g>
<!-- same -->
<g id="node14" class="node">
<title>same</title>
<path fill="none" stroke="black" d="M523,-502C523,-502 405,-502 405,-502 399,-502 393,-496 393,-490 393,-490 393,-478 393,-478 393,-472 399,-466 405,-466 405,-466 523,-466 523,-466 529,-466 535,-472 535,-478 535,-478 535,-490 535,-490 535,-496 529,-502 523,-502"/>
<text text-anchor="middle" x="464" y="-480.3" font-family="Arial" font-size="14.00">Return existing order</text>
</g>
<!-- existing&#45;&gt;same -->
<g id="edge7" class="edge">
<title>existing&#45;&gt;same</title>
<path fill="none" stroke="black" d="M464,-552.8C464,-541.16 464,-525.55 464,-512.24"/>
<polygon fill="black" stroke="black" points="467.5,-512.18 464,-502.18 460.5,-512.18 467.5,-512.18"/>
<text text-anchor="middle" x="503.5" y="-523.8" font-family="Times,serif" font-size="14.00">Same hash</text>
</g>
<!-- diff -->
<g id="node15" class="node">
<title>diff</title>
<path fill="none" stroke="black" d="M792.5,-502C792.5,-502 565.5,-502 565.5,-502 559.5,-502 553.5,-496 553.5,-490 553.5,-490 553.5,-478 553.5,-478 553.5,-472 559.5,-466 565.5,-466 565.5,-466 792.5,-466 792.5,-466 798.5,-466 804.5,-472 804.5,-478 804.5,-478 804.5,-490 804.5,-490 804.5,-496 798.5,-502 792.5,-502"/>
<text text-anchor="middle" x="679" y="-480.3" font-family="Arial" font-size="14.00">409 DUPLICATE_ORDER_CONFLICT</text>
</g>
<!-- existing&#45;&gt;diff -->
<g id="edge8" class="edge">
<title>existing&#45;&gt;diff</title>
<path fill="none" stroke="black" d="M507.25,-552.9C541.58,-539.33 589.72,-520.29 626.31,-505.83"/>
<polygon fill="black" stroke="black" points="627.81,-509 635.82,-502.07 625.23,-502.49 627.81,-509"/>
<text text-anchor="middle" x="636.5" y="-523.8" font-family="Times,serif" font-size="14.00">Different hash</text>
</g>
<!-- reserve -->
<g id="node7" class="node">
<title>reserve</title>
<path fill="none" stroke="black" d="M376,-429C376,-429 236,-429 236,-429 230,-429 224,-423 224,-417 224,-417 224,-405 224,-405 224,-399 230,-393 236,-393 236,-393 376,-393 376,-393 382,-393 388,-399 388,-405 388,-405 388,-417 388,-417 388,-423 382,-429 376,-429"/>
<text text-anchor="middle" x="306" y="-407.3" font-family="Arial" font-size="14.00">Atomic stock reservation</text>
</g>
<!-- tx&#45;&gt;reserve -->
<g id="edge10" class="edge">
<title>tx&#45;&gt;reserve</title>
<path fill="none" stroke="black" d="M306,-465.81C306,-457.79 306,-448.05 306,-439.07"/>
<polygon fill="black" stroke="black" points="309.5,-439.03 306,-429.03 302.5,-439.03 309.5,-439.03"/>
</g>
<!-- create -->
<g id="node8" class="node">
<title>create</title>
<path fill="none" stroke="black" d="M272.5,-342C272.5,-342 155.5,-342 155.5,-342 149.5,-342 143.5,-336 143.5,-330 143.5,-330 143.5,-318 143.5,-318 143.5,-312 149.5,-306 155.5,-306 155.5,-306 272.5,-306 272.5,-306 278.5,-306 284.5,-312 284.5,-318 284.5,-318 284.5,-330 284.5,-330 284.5,-336 278.5,-342 272.5,-342"/>
<text text-anchor="middle" x="214" y="-320.3" font-family="Arial" font-size="14.00">Create order + items</text>
</g>
<!-- reserve&#45;&gt;create -->
<g id="edge12" class="edge">
<title>reserve&#45;&gt;create</title>
<path fill="none" stroke="black" d="M287.38,-392.8C273.79,-380.24 255.18,-363.05 240.11,-349.12"/>
<polygon fill="black" stroke="black" points="242.31,-346.39 232.59,-342.18 237.56,-351.53 242.31,-346.39"/>
<text text-anchor="middle" x="299.5" y="-363.8" font-family="Times,serif" font-size="14.00">Reserved</text>
</g>
<!-- stockfail -->
<g id="node16" class="node">
<title>stockfail</title>
<path fill="none" stroke="black" d="M481.5,-342C481.5,-342 314.5,-342 314.5,-342 308.5,-342 302.5,-336 302.5,-330 302.5,-330 302.5,-318 302.5,-318 302.5,-312 308.5,-306 314.5,-306 314.5,-306 481.5,-306 481.5,-306 487.5,-306 493.5,-312 493.5,-318 493.5,-318 493.5,-330 493.5,-330 493.5,-336 487.5,-342 481.5,-342"/>
<text text-anchor="middle" x="398" y="-320.3" font-family="Arial" font-size="14.00">422 STOCK_INSUFFICIENT</text>
</g>
<!-- reserve&#45;&gt;stockfail -->
<g id="edge11" class="edge">
<title>reserve&#45;&gt;stockfail</title>
<path fill="none" stroke="black" d="M324.62,-392.8C338.21,-380.24 356.82,-363.05 371.89,-349.12"/>
<polygon fill="black" stroke="black" points="374.44,-351.53 379.41,-342.18 369.69,-346.39 374.44,-351.53"/>
<text text-anchor="middle" x="389.5" y="-363.8" font-family="Times,serif" font-size="14.00">No stock</text>
</g>
<!-- persist -->
<g id="node9" class="node">
<title>persist</title>
<path fill="none" stroke="black" d="M284,-269C284,-269 144,-269 144,-269 138,-269 132,-263 132,-257 132,-257 132,-245 132,-245 132,-239 138,-233 144,-233 144,-233 284,-233 284,-233 290,-233 296,-239 296,-245 296,-245 296,-257 296,-257 296,-263 290,-269 284,-269"/>
<text text-anchor="middle" x="214" y="-247.3" font-family="Arial" font-size="14.00">Persist idempotency key</text>
</g>
<!-- create&#45;&gt;persist -->
<g id="edge13" class="edge">
<title>create&#45;&gt;persist</title>
<path fill="none" stroke="black" d="M214,-305.81C214,-297.79 214,-288.05 214,-279.07"/>
<polygon fill="black" stroke="black" points="217.5,-279.03 214,-269.03 210.5,-279.03 217.5,-279.03"/>
</g>
<!-- commit -->
<g id="node10" class="node">
<title>commit</title>
<path fill="none" stroke="black" d="M269,-196C269,-196 159,-196 159,-196 153,-196 147,-190 147,-184 147,-184 147,-172 147,-172 147,-166 153,-160 159,-160 159,-160 269,-160 269,-160 275,-160 281,-166 281,-172 281,-172 281,-184 281,-184 281,-190 275,-196 269,-196"/>
<text text-anchor="middle" x="214" y="-174.3" font-family="Arial" font-size="14.00">Commit transaction</text>
</g>
<!-- persist&#45;&gt;commit -->
<g id="edge14" class="edge">
<title>persist&#45;&gt;commit</title>
<path fill="none" stroke="black" d="M214,-232.81C214,-224.79 214,-215.05 214,-206.07"/>
<polygon fill="black" stroke="black" points="217.5,-206.03 214,-196.03 210.5,-206.03 217.5,-206.03"/>
</g>
<!-- erp -->
<g id="node11" class="node">
<title>erp</title>
<path fill="none" stroke="black" d="M294,-123C294,-123 134,-123 134,-123 128,-123 122,-117 122,-111 122,-111 122,-99 122,-99 122,-93 128,-87 134,-87 134,-87 294,-87 294,-87 300,-87 306,-93 306,-99 306,-99 306,-111 306,-111 306,-117 300,-123 294,-123"/>
<text text-anchor="middle" x="214" y="-101.3" font-family="Arial" font-size="14.00">Process with ERP simulator</text>
</g>
<!-- commit&#45;&gt;erp -->
<g id="edge15" class="edge">
<title>commit&#45;&gt;erp</title>
<path fill="none" stroke="black" d="M214,-159.81C214,-151.79 214,-142.05 214,-133.07"/>
<polygon fill="black" stroke="black" points="217.5,-133.03 214,-123.03 210.5,-133.03 217.5,-133.03"/>
</g>
<!-- confirmed -->
<g id="node17" class="node">
<title>confirmed</title>
<path fill="none" stroke="black" d="M114,-36C114,-36 12,-36 12,-36 6,-36 0,-30 0,-24 0,-24 0,-12 0,-12 0,-6 6,0 12,0 12,0 114,0 114,0 120,0 126,-6 126,-12 126,-12 126,-24 126,-24 126,-30 120,-36 114,-36"/>
<text text-anchor="middle" x="63" y="-14.3" font-family="Arial" font-size="14.00">201 CONFIRMED</text>
</g>
<!-- erp&#45;&gt;confirmed -->
<g id="edge16" class="edge">
<title>erp&#45;&gt;confirmed</title>
<path fill="none" stroke="black" d="M171.46,-86.92C159.44,-81.62 146.51,-75.47 135,-69 120.88,-61.06 106.05,-51.08 93.55,-42.13"/>
<polygon fill="black" stroke="black" points="95.45,-39.18 85.3,-36.13 91.33,-44.85 95.45,-39.18"/>
<text text-anchor="middle" x="172.5" y="-57.8" font-family="Times,serif" font-size="14.00">Confirmed</text>
</g>
<!-- pending -->
<g id="node18" class="node">
<title>pending</title>
<path fill="none" stroke="black" d="M272,-36C272,-36 156,-36 156,-36 150,-36 144,-30 144,-24 144,-24 144,-12 144,-12 144,-6 150,0 156,0 156,0 272,0 272,0 278,0 284,-6 284,-12 284,-12 284,-24 284,-24 284,-30 278,-36 272,-36"/>
<text text-anchor="middle" x="214" y="-14.3" font-family="Arial" font-size="14.00">202 PENDING_ERP</text>
</g>
<!-- erp&#45;&gt;pending -->
<g id="edge17" class="edge">
<title>erp&#45;&gt;pending</title>
<path fill="none" stroke="black" d="M214,-86.8C214,-75.16 214,-59.55 214,-46.24"/>
<polygon fill="black" stroke="black" points="217.5,-46.18 214,-36.18 210.5,-46.18 217.5,-46.18"/>
<text text-anchor="middle" x="231.5" y="-57.8" font-family="Times,serif" font-size="14.00">Slow</text>
</g>
<!-- tempfail -->
<g id="node19" class="node">
<title>tempfail</title>
<path fill="none" stroke="black" d="M490,-36C490,-36 314,-36 314,-36 308,-36 302,-30 302,-24 302,-24 302,-12 302,-12 302,-6 308,0 314,0 314,0 490,0 490,0 496,0 502,-6 502,-12 502,-12 502,-24 502,-24 502,-30 496,-36 490,-36"/>
<text text-anchor="middle" x="402" y="-14.3" font-family="Arial" font-size="14.00">503 or FAILED_TEMPORARY</text>
</g>
<!-- erp&#45;&gt;tempfail -->
<g id="edge18" class="edge">
<title>erp&#45;&gt;tempfail</title>
<path fill="none" stroke="black" d="M252.04,-86.8C281.83,-73.33 323.4,-54.54 355.22,-40.15"/>
<polygon fill="black" stroke="black" points="356.66,-43.34 364.33,-36.03 353.78,-36.96 356.66,-43.34"/>
<text text-anchor="middle" x="384.5" y="-57.8" font-family="Times,serif" font-size="14.00">Temporary failure</text>
</g>
</g>
</svg>
