<?xml version="1.0" encoding="UTF-8" standalone="no"?>
<!DOCTYPE svg PUBLIC "-//W3C//DTD SVG 1.1//EN"
 "http://www.w3.org/Graphics/SVG/1.1/DTD/svg11.dtd">
<!-- Generated by graphviz version 2.42.4 (0)
 -->
<!-- Title: G Pages: 1 -->
<svg width="455pt" height="285pt"
 viewBox="0.00 0.00 455.13 285.00" xmlns="http://www.w3.org/2000/svg" xmlns:xlink="http://www.w3.org/1999/xlink">
<g id="graph0" class="graph" transform="scale(1 1) rotate(0) translate(4 281)">
<title>G</title>
<polygon fill="white" stroke="transparent" points="-4,4 -4,-281 451.13,-281 451.13,4 -4,4"/>
<!-- root -->
<g id="node1" class="node">
<title>root</title>
<path fill="none" stroke="black" d="M314.13,-277C314.13,-277 167.13,-277 167.13,-277 161.13,-277 155.13,-271 155.13,-265 155.13,-265 155.13,-251 155.13,-251 155.13,-245 161.13,-239 167.13,-239 167.13,-239 314.13,-239 314.13,-239 320.13,-239 326.13,-245 326.13,-251 326.13,-251 326.13,-265 326.13,-265 326.13,-271 320.13,-277 314.13,-277"/>
<text text-anchor="middle" x="240.63" y="-261.8" font-family="Arial" font-size="14.00">root</text>
<text text-anchor="middle" x="240.63" y="-246.8" font-family="Arial" font-size="14.00">package.json + turbo.json</text>
</g>
<!-- api -->
<g id="node2" class="node">
<title>api</title>
<path fill="none" stroke="black" d="M215.13,-202C215.13,-202 34.13,-202 34.13,-202 28.13,-202 22.13,-196 22.13,-190 22.13,-190 22.13,-176 22.13,-176 22.13,-170 28.13,-164 34.13,-164 34.13,-164 215.13,-164 215.13,-164 221.13,-164 227.13,-170 227.13,-176 227.13,-176 227.13,-190 227.13,-190 227.13,-196 221.13,-202 215.13,-202"/>
<text text-anchor="middle" x="124.63" y="-186.8" font-family="Arial" font-size="14.00">apps/api</text>
<text text-anchor="middle" x="124.63" y="-171.8" font-family="Arial" font-size="14.00">Fastify + PostgreSQL + Prisma</text>
</g>
<!-- root&#45;&gt;api -->
<g id="edge1" class="edge">
<title>root&#45;&gt;api</title>
<path fill="none" stroke="black" d="M211.96,-238.96C196.9,-229.48 178.27,-217.75 162.08,-207.57"/>
<polygon fill="black" stroke="black" points="163.71,-204.45 153.38,-202.09 159.98,-210.38 163.71,-204.45"/>
</g>
<!-- web -->
<g id="node3" class="node">
<title>web</title>
<path fill="none" stroke="black" d="M364.13,-202C364.13,-202 257.13,-202 257.13,-202 251.13,-202 245.13,-196 245.13,-190 245.13,-190 245.13,-176 245.13,-176 245.13,-170 251.13,-164 257.13,-164 257.13,-164 364.13,-164 364.13,-164 370.13,-164 376.13,-170 376.13,-176 376.13,-176 376.13,-190 376.13,-190 376.13,-196 370.13,-202 364.13,-202"/>
<text text-anchor="middle" x="310.63" y="-186.8" font-family="Arial" font-size="14.00">apps/web</text>
<text text-anchor="middle" x="310.63" y="-171.8" font-family="Arial" font-size="14.00">React + TypeScript</text>
</g>
<!-- root&#45;&gt;web -->
<g id="edge2" class="edge">
<title>root&#45;&gt;web</title>
<path fill="none" stroke="black" d="M257.94,-238.96C266.44,-230.09 276.82,-219.26 286.12,-209.56"/>
<polygon fill="black" stroke="black" points="288.89,-211.73 293.29,-202.09 283.84,-206.89 288.89,-211.73"/>
</g>
<!-- shared -->
<g id="node4" class="node">
<title>shared</title>
<path fill="none" stroke="black" d="M435.13,-113C435.13,-113 252.13,-113 252.13,-113 246.13,-113 240.13,-107 240.13,-101 240.13,-101 240.13,-87 240.13,-87 240.13,-81 246.13,-75 252.13,-75 252.13,-75 435.13,-75 435.13,-75 441.13,-75 447.13,-81 447.13,-87 447.13,-87 447.13,-101 447.13,-101 447.13,-107 441.13,-113 435.13,-113"/>
<text text-anchor="middle" x="343.63" y="-97.8" font-family="Arial" font-size="14.00">packages/shared</text>
<text text-anchor="middle" x="343.63" y="-82.8" font-family="Arial" font-size="14.00">DTOs + schemas + error codes</text>
</g>
<!-- root&#45;&gt;shared -->
<g id="edge3" class="edge">
<title>root&#45;&gt;shared</title>
<path fill="none" stroke="black" d="M326.18,-241.57C348.49,-233.43 370.27,-221 384.63,-202 403.72,-176.77 403.49,-159.44 389.63,-131 387.74,-127.1 385.19,-123.5 382.26,-120.21"/>
<polygon fill="black" stroke="black" points="384.5,-117.51 374.87,-113.09 379.64,-122.55 384.5,-117.51"/>
</g>
<!-- tsconfig -->
<g id="node5" class="node">
<title>tsconfig</title>
<path fill="none" stroke="black" d="M230.13,-38C230.13,-38 89.13,-38 89.13,-38 83.13,-38 77.13,-32 77.13,-26 77.13,-26 77.13,-12 77.13,-12 77.13,-6 83.13,0 89.13,0 89.13,0 230.13,0 230.13,0 236.13,0 242.13,-6 242.13,-12 242.13,-12 242.13,-26 242.13,-26 242.13,-32 236.13,-38 230.13,-38"/>
<text text-anchor="middle" x="159.63" y="-22.8" font-family="Arial" font-size="14.00">packages/tsconfig</text>
<text text-anchor="middle" x="159.63" y="-7.8" font-family="Arial" font-size="14.00">shared TypeScript config</text>
</g>
<!-- root&#45;&gt;tsconfig -->
<g id="edge4" class="edge">
<title>root&#45;&gt;tsconfig</title>
<path fill="none" stroke="black" d="M155,-247.37C98,-239 30.43,-224.59 12.63,-202 -32.66,-144.48 58.7,-77.73 116.74,-43.27"/>
<polygon fill="black" stroke="black" points="118.52,-46.28 125.39,-38.22 114.99,-40.24 118.52,-46.28"/>
</g>
<!-- api&#45;&gt;shared -->
<g id="edge5" class="edge">
<title>api&#45;&gt;shared</title>
<path fill="none" stroke="black" d="M170.01,-163.97C204.51,-150.27 252.13,-131.35 288.77,-116.79"/>
<polygon fill="black" stroke="black" points="290.31,-119.95 298.32,-113 287.73,-113.44 290.31,-119.95"/>
<text text-anchor="middle" x="275.63" y="-134.8" font-family="Times,serif" font-size="14.00">imports</text>
</g>
<!-- api&#45;&gt;tsconfig -->
<g id="edge7" class="edge">
<title>api&#45;&gt;tsconfig</title>
<path fill="none" stroke="black" d="M128.58,-163.73C134.65,-135.66 146.31,-81.67 153.49,-48.45"/>
<polygon fill="black" stroke="black" points="156.96,-48.96 155.65,-38.45 150.12,-47.49 156.96,-48.96"/>
</g>
<!-- web&#45;&gt;shared -->
<g id="edge6" class="edge">
<title>web&#45;&gt;shared</title>
<path fill="none" stroke="black" d="M317.47,-163.97C322.03,-151.96 328.11,-135.94 333.25,-122.36"/>
<polygon fill="black" stroke="black" points="336.53,-123.59 336.81,-113 329.99,-121.11 336.53,-123.59"/>
<text text-anchor="middle" x="357.63" y="-134.8" font-family="Times,serif" font-size="14.00">imports</text>
</g>
<!-- web&#45;&gt;tsconfig -->
<g id="edge8" class="edge">
<title>web&#45;&gt;tsconfig</title>
<path fill="none" stroke="black" d="M287.09,-163.85C270.52,-150.57 248.24,-131.69 230.63,-113 210.82,-91.97 191.11,-65.61 177.5,-46.32"/>
<polygon fill="black" stroke="black" points="180.29,-44.2 171.7,-38 174.55,-48.21 180.29,-44.2"/>
</g>
<!-- shared&#45;&gt;tsconfig -->
<g id="edge9" class="edge">
<title>shared&#45;&gt;tsconfig</title>
<path fill="none" stroke="black" d="M298.15,-74.96C272.94,-64.95 241.4,-52.44 214.79,-41.88"/>
<polygon fill="black" stroke="black" points="215.82,-38.52 205.23,-38.09 213.24,-45.03 215.82,-38.52"/>
</g>
</g>
</svg>
