<?xml version="1.0" encoding="UTF-8" standalone="no"?>
<!DOCTYPE svg PUBLIC "-//W3C//DTD SVG 1.1//EN"
 "http://www.w3.org/Graphics/SVG/1.1/DTD/svg11.dtd">
<!-- Generated by graphviz version 2.42.4 (0)
 -->
<!-- Title: G Pages: 1 -->
<svg width="828pt" height="159pt"
 viewBox="0.00 0.00 828.00 159.00" xmlns="http://www.w3.org/2000/svg" xmlns:xlink="http://www.w3.org/1999/xlink">
<g id="graph0" class="graph" transform="scale(1 1) rotate(0) translate(4 155)">
<title>G</title>
<polygon fill="white" stroke="transparent" points="-4,4 -4,-155 824,-155 824,4 -4,4"/>
<!-- shared -->
<g id="node1" class="node">
<title>shared</title>
<path fill="none" stroke="black" d="M249,-75C249,-75 12,-75 12,-75 6,-75 0,-69 0,-63 0,-63 0,-49 0,-49 0,-43 6,-37 12,-37 12,-37 249,-37 249,-37 255,-37 261,-43 261,-49 261,-49 261,-63 261,-63 261,-69 255,-75 249,-75"/>
<text text-anchor="middle" x="130.5" y="-59.8" font-family="Arial" font-size="14.00">packages/shared</text>
<text text-anchor="middle" x="130.5" y="-44.8" font-family="Arial" font-size="14.00">DTOs, Zod schemas, status, error codes</text>
</g>
<!-- api_validation -->
<g id="node2" class="node">
<title>api_validation</title>
<path fill="none" stroke="black" d="M433,-151C433,-151 309,-151 309,-151 303,-151 297,-145 297,-139 297,-139 297,-127 297,-127 297,-121 303,-115 309,-115 309,-115 433,-115 433,-115 439,-115 445,-121 445,-127 445,-127 445,-139 445,-139 445,-145 439,-151 433,-151"/>
<text text-anchor="middle" x="371" y="-129.3" font-family="Arial" font-size="14.00">API request validation</text>
</g>
<!-- shared&#45;&gt;api_validation -->
<g id="edge1" class="edge">
<title>shared&#45;&gt;api_validation</title>
<path fill="none" stroke="black" d="M190.46,-75.03C225,-86.19 268.71,-100.3 304.36,-111.81"/>
<polygon fill="black" stroke="black" points="303.59,-115.24 314.18,-114.98 305.74,-108.58 303.59,-115.24"/>
</g>
<!-- api_response -->
<g id="node3" class="node">
<title>api_response</title>
<path fill="none" stroke="black" d="M429.5,-97C429.5,-97 312.5,-97 312.5,-97 306.5,-97 300.5,-91 300.5,-85 300.5,-85 300.5,-73 300.5,-73 300.5,-67 306.5,-61 312.5,-61 312.5,-61 429.5,-61 429.5,-61 435.5,-61 441.5,-67 441.5,-73 441.5,-73 441.5,-85 441.5,-85 441.5,-91 435.5,-97 429.5,-97"/>
<text text-anchor="middle" x="371" y="-75.3" font-family="Arial" font-size="14.00">API typed responses</text>
</g>
<!-- shared&#45;&gt;api_response -->
<g id="edge2" class="edge">
<title>shared&#45;&gt;api_response</title>
<path fill="none" stroke="black" d="M261.22,-68.51C271.09,-69.46 280.86,-70.4 290.26,-71.31"/>
<polygon fill="black" stroke="black" points="290.02,-74.8 300.31,-72.28 290.69,-67.84 290.02,-74.8"/>
</g>
<!-- client -->
<g id="node5" class="node">
<title>client</title>
<path fill="none" stroke="black" d="M614,-59C614,-59 493,-59 493,-59 487,-59 481,-53 481,-47 481,-47 481,-35 481,-35 481,-29 487,-23 493,-23 493,-23 614,-23 614,-23 620,-23 626,-29 626,-35 626,-35 626,-47 626,-47 626,-53 620,-59 614,-59"/>
<text text-anchor="middle" x="553.5" y="-37.3" font-family="Arial" font-size="14.00">Frontend HTTP client</text>
</g>
<!-- shared&#45;&gt;client -->
<g id="edge3" class="edge">
<title>shared&#45;&gt;client</title>
<path fill="none" stroke="black" d="M261.25,-51.38C329.54,-48.94 411.19,-46.03 470.64,-43.92"/>
<polygon fill="black" stroke="black" points="470.86,-47.41 480.73,-43.56 470.61,-40.42 470.86,-47.41"/>
</g>
<!-- ui -->
<g id="node6" class="node">
<title>ui</title>
<path fill="none" stroke="black" d="M808,-36C808,-36 674,-36 674,-36 668,-36 662,-30 662,-24 662,-24 662,-12 662,-12 662,-6 668,0 674,0 674,0 808,0 808,0 814,0 820,-6 820,-12 820,-12 820,-24 820,-24 820,-30 814,-36 808,-36"/>
<text text-anchor="middle" x="741" y="-14.3" font-family="Arial" font-size="14.00">UI error/status mapping</text>
</g>
<!-- shared&#45;&gt;ui -->
<g id="edge4" class="edge">
<title>shared&#45;&gt;ui</title>
<path fill="none" stroke="black" d="M258.99,-36.97C325.07,-28.04 407.18,-18.42 481,-14 545.33,-10.15 561.57,-12.87 626,-14 634.33,-14.15 642.99,-14.35 651.66,-14.59"/>
<polygon fill="black" stroke="black" points="651.72,-18.1 661.82,-14.89 651.93,-11.1 651.72,-18.1"/>
</g>
<!-- usecase -->
<g id="node4" class="node">
<title>usecase</title>
<path fill="none" stroke="black" d="M596.5,-151C596.5,-151 510.5,-151 510.5,-151 504.5,-151 498.5,-145 498.5,-139 498.5,-139 498.5,-127 498.5,-127 498.5,-121 504.5,-115 510.5,-115 510.5,-115 596.5,-115 596.5,-115 602.5,-115 608.5,-121 608.5,-127 608.5,-127 608.5,-139 608.5,-139 608.5,-145 602.5,-151 596.5,-151"/>
<text text-anchor="middle" x="553.5" y="-129.3" font-family="Arial" font-size="14.00">Order use case</text>
</g>
<!-- api_validation&#45;&gt;usecase -->
<g id="edge5" class="edge">
<title>api_validation&#45;&gt;usecase</title>
<path fill="none" stroke="black" d="M445.16,-133C459.47,-133 474.38,-133 488.37,-133"/>
<polygon fill="black" stroke="black" points="488.37,-136.5 498.37,-133 488.37,-129.5 488.37,-136.5"/>
</g>
<!-- api_response&#45;&gt;client -->
<g id="edge6" class="edge">
<title>api_response&#45;&gt;client</title>
<path fill="none" stroke="black" d="M441.53,-64.36C451.21,-62.32 461.23,-60.21 471.11,-58.14"/>
<polygon fill="black" stroke="black" points="471.85,-61.56 480.92,-56.07 470.41,-54.71 471.85,-61.56"/>
</g>
<!-- client&#45;&gt;ui -->
<g id="edge7" class="edge">
<title>client&#45;&gt;ui</title>
<path fill="none" stroke="black" d="M626.22,-32.11C634.57,-31.07 643.17,-30.01 651.71,-28.95"/>
<polygon fill="black" stroke="black" points="652.21,-32.41 661.7,-27.71 651.34,-25.47 652.21,-32.41"/>
</g>
</g>
</svg>
