<?xml version="1.0" encoding="UTF-8" standalone="no"?>
<!DOCTYPE svg PUBLIC "-//W3C//DTD SVG 1.1//EN"
 "http://www.w3.org/Graphics/SVG/1.1/DTD/svg11.dtd">
<!-- Generated by graphviz version 2.42.4 (0)
 -->
<!-- Title: G Pages: 1 -->
<svg width="1150pt" height="715pt"
 viewBox="0.00 0.00 1150.00 715.00" xmlns="http://www.w3.org/2000/svg" xmlns:xlink="http://www.w3.org/1999/xlink">
<g id="graph0" class="graph" transform="scale(1 1) rotate(0) translate(4 711)">
<title>G</title>
<polygon fill="white" stroke="transparent" points="-4,4 -4,-711 1146,-711 1146,4 -4,4"/>
<!-- start -->
<g id="node1" class="node">
<title>start</title>
<ellipse fill="none" stroke="black" cx="604.5" cy="-689" rx="72.59" ry="18"/>
<text text-anchor="middle" x="604.5" y="-685.3" font-family="Arial" font-size="14.00">User opens app</text>
</g>
<!-- products -->
<g id="node2" class="node">
<title>products</title>
<path fill="none" stroke="black" d="M650,-634C650,-634 559,-634 559,-634 553,-634 547,-628 547,-622 547,-622 547,-610 547,-610 547,-604 553,-598 559,-598 559,-598 650,-598 650,-598 656,-598 662,-604 662,-610 662,-610 662,-622 662,-622 662,-628 656,-634 650,-634"/>
<text text-anchor="middle" x="604.5" y="-612.3" font-family="Arial" font-size="14.00">View product list</text>
</g>
<!-- start&#45;&gt;products -->
<g id="edge1" class="edge">
<title>start&#45;&gt;products</title>
<path fill="none" stroke="black" d="M604.5,-670.81C604.5,-662.79 604.5,-653.05 604.5,-644.07"/>
<polygon fill="black" stroke="black" points="608,-644.03 604.5,-634.03 601,-644.03 608,-644.03"/>
</g>
<!-- select -->
<g id="node3" class="node">
<title>select</title>
<path fill="none" stroke="black" d="M656.5,-561C656.5,-561 552.5,-561 552.5,-561 546.5,-561 540.5,-555 540.5,-549 540.5,-549 540.5,-537 540.5,-537 540.5,-531 546.5,-525 552.5,-525 552.5,-525 656.5,-525 656.5,-525 662.5,-525 668.5,-531 668.5,-537 668.5,-537 668.5,-549 668.5,-549 668.5,-555 662.5,-561 656.5,-561"/>
<text text-anchor="middle" x="604.5" y="-539.3" font-family="Arial" font-size="14.00">Select phone case</text>
</g>
<!-- products&#45;&gt;select -->
<g id="edge2" class="edge">
<title>products&#45;&gt;select</title>
<path fill="none" stroke="black" d="M604.5,-597.81C604.5,-589.79 604.5,-580.05 604.5,-571.07"/>
<polygon fill="black" stroke="black" points="608,-571.03 604.5,-561.03 601,-571.03 608,-571.03"/>
</g>
<!-- qty -->
<g id="node4" class="node">
<title>qty</title>
<path fill="none" stroke="black" d="M649.5,-488C649.5,-488 559.5,-488 559.5,-488 553.5,-488 547.5,-482 547.5,-476 547.5,-476 547.5,-464 547.5,-464 547.5,-458 553.5,-452 559.5,-452 559.5,-452 649.5,-452 649.5,-452 655.5,-452 661.5,-458 661.5,-464 661.5,-464 661.5,-476 661.5,-476 661.5,-482 655.5,-488 649.5,-488"/>
<text text-anchor="middle" x="604.5" y="-466.3" font-family="Arial" font-size="14.00">Choose quantity</text>
</g>
<!-- select&#45;&gt;qty -->
<g id="edge3" class="edge">
<title>select&#45;&gt;qty</title>
<path fill="none" stroke="black" d="M604.5,-524.81C604.5,-516.79 604.5,-507.05 604.5,-498.07"/>
<polygon fill="black" stroke="black" points="608,-498.03 604.5,-488.03 601,-498.03 608,-498.03"/>
</g>
<!-- login -->
<g id="node5" class="node">
<title>login</title>
<path fill="none" stroke="black" d="M599,-415C599,-415 540,-415 540,-415 534,-415 528,-409 528,-403 528,-403 528,-391 528,-391 528,-385 534,-379 540,-379 540,-379 599,-379 599,-379 605,-379 611,-385 611,-391 611,-391 611,-403 611,-403 611,-409 605,-415 599,-415"/>
<text text-anchor="middle" x="569.5" y="-393.3" font-family="Arial" font-size="14.00">Logged in?</text>
</g>
<!-- qty&#45;&gt;login -->
<g id="edge4" class="edge">
<title>qty&#45;&gt;login</title>
<path fill="none" stroke="black" d="M596.03,-451.81C591.94,-443.53 586.96,-433.41 582.41,-424.19"/>
<polygon fill="black" stroke="black" points="585.46,-422.45 577.89,-415.03 579.18,-425.55 585.46,-422.45"/>
</g>
<!-- loginPage -->
<g id="node6" class="node">
<title>loginPage</title>
<path fill="none" stroke="black" d="M654.5,-328C654.5,-328 624.5,-328 624.5,-328 618.5,-328 612.5,-322 612.5,-316 612.5,-316 612.5,-304 612.5,-304 612.5,-298 618.5,-292 624.5,-292 624.5,-292 654.5,-292 654.5,-292 660.5,-292 666.5,-298 666.5,-304 666.5,-304 666.5,-316 666.5,-316 666.5,-322 660.5,-328 654.5,-328"/>
<text text-anchor="middle" x="639.5" y="-306.3" font-family="Arial" font-size="14.00">Login</text>
</g>
<!-- login&#45;&gt;loginPage -->
<g id="edge5" class="edge">
<title>login&#45;&gt;loginPage</title>
<path fill="none" stroke="black" d="M580.46,-378.79C587.03,-368.89 595.78,-356.39 604.5,-346 607.44,-342.5 610.67,-338.94 613.94,-335.5"/>
<polygon fill="black" stroke="black" points="616.56,-337.82 621.07,-328.23 611.57,-332.92 616.56,-337.82"/>
<text text-anchor="middle" x="615" y="-349.8" font-family="Times,serif" font-size="14.00">No</text>
</g>
<!-- submit -->
<g id="node7" class="node">
<title>submit</title>
<path fill="none" stroke="black" d="M582.5,-328C582.5,-328 484.5,-328 484.5,-328 478.5,-328 472.5,-322 472.5,-316 472.5,-316 472.5,-304 472.5,-304 472.5,-298 478.5,-292 484.5,-292 484.5,-292 582.5,-292 582.5,-292 588.5,-292 594.5,-298 594.5,-304 594.5,-304 594.5,-316 594.5,-316 594.5,-322 588.5,-328 582.5,-328"/>
<text text-anchor="middle" x="533.5" y="-306.3" font-family="Arial" font-size="14.00">Click create order</text>
</g>
<!-- login&#45;&gt;submit -->
<g id="edge7" class="edge">
<title>login&#45;&gt;submit</title>
<path fill="none" stroke="black" d="M560.08,-378.77C557.17,-373.17 554.06,-366.89 551.5,-361 548.28,-353.59 545.15,-345.39 542.43,-337.82"/>
<polygon fill="black" stroke="black" points="545.72,-336.63 539.12,-328.34 539.12,-338.93 545.72,-336.63"/>
<text text-anchor="middle" x="564" y="-349.8" font-family="Times,serif" font-size="14.00">Yes</text>
</g>
<!-- loginPage&#45;&gt;qty -->
<g id="edge6" class="edge">
<title>loginPage&#45;&gt;qty</title>
<path fill="none" stroke="black" d="M636.66,-328.02C633.12,-348.69 626.64,-384.57 619.5,-415 617.45,-423.75 614.92,-433.23 612.53,-441.76"/>
<polygon fill="black" stroke="black" points="609.1,-441.01 609.72,-451.58 615.84,-442.93 609.1,-441.01"/>
</g>
<!-- loading -->
<g id="node8" class="node">
<title>loading</title>
<path fill="none" stroke="black" d="M606,-255C606,-255 461,-255 461,-255 455,-255 449,-249 449,-243 449,-243 449,-231 449,-231 449,-225 455,-219 461,-219 461,-219 606,-219 606,-219 612,-219 618,-225 618,-231 618,-231 618,-243 618,-243 618,-249 612,-255 606,-255"/>
<text text-anchor="middle" x="533.5" y="-233.3" font-family="Arial" font-size="14.00">Button disabled + loading</text>
</g>
<!-- submit&#45;&gt;loading -->
<g id="edge8" class="edge">
<title>submit&#45;&gt;loading</title>
<path fill="none" stroke="black" d="M533.5,-291.81C533.5,-283.79 533.5,-274.05 533.5,-265.07"/>
<polygon fill="black" stroke="black" points="537,-265.03 533.5,-255.03 530,-265.03 537,-265.03"/>
</g>
<!-- result -->
<g id="node9" class="node">
<title>result</title>
<path fill="none" stroke="black" d="M570.5,-182C570.5,-182 496.5,-182 496.5,-182 490.5,-182 484.5,-176 484.5,-170 484.5,-170 484.5,-158 484.5,-158 484.5,-152 490.5,-146 496.5,-146 496.5,-146 570.5,-146 570.5,-146 576.5,-146 582.5,-152 582.5,-158 582.5,-158 582.5,-170 582.5,-170 582.5,-176 576.5,-182 570.5,-182"/>
<text text-anchor="middle" x="533.5" y="-160.3" font-family="Arial" font-size="14.00">API response</text>
</g>
<!-- loading&#45;&gt;result -->
<g id="edge9" class="edge">
<title>loading&#45;&gt;result</title>
<path fill="none" stroke="black" d="M533.5,-218.81C533.5,-210.79 533.5,-201.05 533.5,-192.07"/>
<polygon fill="black" stroke="black" points="537,-192.03 533.5,-182.03 530,-192.03 537,-192.03"/>
</g>
<!-- success -->
<g id="node10" class="node">
<title>success</title>
<path fill="none" stroke="black" d="M137,-109C137,-109 12,-109 12,-109 6,-109 0,-103 0,-97 0,-97 0,-85 0,-85 0,-79 6,-73 12,-73 12,-73 137,-73 137,-73 143,-73 149,-79 149,-85 149,-85 149,-97 149,-97 149,-103 143,-109 137,-109"/>
<text text-anchor="middle" x="74.5" y="-87.3" font-family="Arial" font-size="14.00">Show confirmed order</text>
</g>
<!-- result&#45;&gt;success -->
<g id="edge10" class="edge">
<title>result&#45;&gt;success</title>
<path fill="none" stroke="black" d="M484.38,-156.89C414.34,-147.97 281.52,-130.29 159.04,-109.22"/>
<polygon fill="black" stroke="black" points="159.57,-105.76 149.12,-107.5 158.37,-112.66 159.57,-105.76"/>
</g>
<!-- processing -->
<g id="node11" class="node">
<title>processing</title>
<path fill="none" stroke="black" d="M334,-109C334,-109 179,-109 179,-109 173,-109 167,-103 167,-97 167,-97 167,-85 167,-85 167,-79 173,-73 179,-73 179,-73 334,-73 334,-73 340,-73 346,-79 346,-85 346,-85 346,-97 346,-97 346,-103 340,-109 334,-109"/>
<text text-anchor="middle" x="256.5" y="-87.3" font-family="Arial" font-size="14.00">Show processing message</text>
</g>
<!-- result&#45;&gt;processing -->
<g id="edge11" class="edge">
<title>result&#45;&gt;processing</title>
<path fill="none" stroke="black" d="M484.3,-150.39C442.26,-139.61 381.1,-123.94 332.73,-111.54"/>
<polygon fill="black" stroke="black" points="333.48,-108.12 322.93,-109.03 331.75,-114.9 333.48,-108.12"/>
</g>
<!-- validation -->
<g id="node12" class="node">
<title>validation</title>
<path fill="none" stroke="black" d="M490.5,-109C490.5,-109 376.5,-109 376.5,-109 370.5,-109 364.5,-103 364.5,-97 364.5,-97 364.5,-85 364.5,-85 364.5,-79 370.5,-73 376.5,-73 376.5,-73 490.5,-73 490.5,-73 496.5,-73 502.5,-79 502.5,-85 502.5,-85 502.5,-97 502.5,-97 502.5,-103 496.5,-109 490.5,-109"/>
<text text-anchor="middle" x="433.5" y="-87.3" font-family="Arial" font-size="14.00">Show field message</text>
</g>
<!-- result&#45;&gt;validation -->
<g id="edge12" class="edge">
<title>result&#45;&gt;validation</title>
<path fill="none" stroke="black" d="M509.55,-145.99C496.53,-136.75 480.25,-125.19 466.09,-115.14"/>
<polygon fill="black" stroke="black" points="467.78,-112.05 457.6,-109.11 463.73,-117.76 467.78,-112.05"/>
</g>
<!-- stock -->
<g id="node13" class="node">
<title>stock</title>
<path fill="none" stroke="black" d="M736,-109C736,-109 533,-109 533,-109 527,-109 521,-103 521,-97 521,-97 521,-85 521,-85 521,-79 527,-73 533,-73 533,-73 736,-73 736,-73 742,-73 748,-79 748,-85 748,-85 748,-97 748,-97 748,-103 742,-109 736,-109"/>
<text text-anchor="middle" x="634.5" y="-87.3" font-family="Arial" font-size="14.00">Show stock error + reload products</text>
</g>
<!-- result&#45;&gt;stock -->
<g id="edge13" class="edge">
<title>result&#45;&gt;stock</title>
<path fill="none" stroke="black" d="M557.69,-145.99C570.84,-136.75 587.28,-125.19 601.58,-115.14"/>
<polygon fill="black" stroke="black" points="603.99,-117.73 610.16,-109.11 599.96,-112 603.99,-117.73"/>
</g>
<!-- duplicate -->
<g id="node14" class="node">
<title>duplicate</title>
<path fill="none" stroke="black" d="M951,-109C951,-109 778,-109 778,-109 772,-109 766,-103 766,-97 766,-97 766,-85 766,-85 766,-79 772,-73 778,-73 778,-73 951,-73 951,-73 957,-73 963,-79 963,-85 963,-85 963,-97 963,-97 963,-103 957,-109 951,-109"/>
<text text-anchor="middle" x="864.5" y="-87.3" font-family="Arial" font-size="14.00">Show existing order or conflict</text>
</g>
<!-- result&#45;&gt;duplicate -->
<g id="edge14" class="edge">
<title>result&#45;&gt;duplicate</title>
<path fill="none" stroke="black" d="M582.7,-152.45C633.28,-141.6 713.17,-124.46 774.99,-111.2"/>
<polygon fill="black" stroke="black" points="776.09,-114.54 785.13,-109.02 774.62,-107.7 776.09,-114.54"/>
</g>
<!-- failure -->
<g id="node15" class="node">
<title>failure</title>
<path fill="none" stroke="black" d="M1130,-109C1130,-109 993,-109 993,-109 987,-109 981,-103 981,-97 981,-97 981,-85 981,-85 981,-79 987,-73 993,-73 993,-73 1130,-73 1130,-73 1136,-73 1142,-79 1142,-85 1142,-85 1142,-97 1142,-97 1142,-103 1136,-109 1130,-109"/>
<text text-anchor="middle" x="1061.5" y="-87.3" font-family="Arial" font-size="14.00">Show retry/status action</text>
</g>
<!-- result&#45;&gt;failure -->
<g id="edge15" class="edge">
<title>result&#45;&gt;failure</title>
<path fill="none" stroke="black" d="M582.7,-158.03C662.21,-149.75 824.1,-131.92 970.47,-109.27"/>
<polygon fill="black" stroke="black" points="971.19,-112.7 980.53,-107.7 970.11,-105.78 971.19,-112.7"/>
</g>
<!-- status -->
<g id="node16" class="node">
<title>status</title>
<path fill="none" stroke="black" d="M309.5,-36C309.5,-36 203.5,-36 203.5,-36 197.5,-36 191.5,-30 191.5,-24 191.5,-24 191.5,-12 191.5,-12 191.5,-6 197.5,0 203.5,0 203.5,0 309.5,0 309.5,0 315.5,0 321.5,-6 321.5,-12 321.5,-12 321.5,-24 321.5,-24 321.5,-30 315.5,-36 309.5,-36"/>
<text text-anchor="middle" x="256.5" y="-14.3" font-family="Arial" font-size="14.00">Check order status</text>
</g>
<!-- success&#45;&gt;status -->
<g id="edge16" class="edge">
<title>success&#45;&gt;status</title>
<path fill="none" stroke="black" d="M118.09,-72.99C143.68,-63.01 176.21,-50.32 203.3,-39.76"/>
<polygon fill="black" stroke="black" points="204.59,-43.01 212.63,-36.11 202.04,-36.49 204.59,-43.01"/>
</g>
<!-- processing&#45;&gt;status -->
<g id="edge17" class="edge">
<title>processing&#45;&gt;status</title>
<path fill="none" stroke="black" d="M256.5,-72.81C256.5,-64.79 256.5,-55.05 256.5,-46.07"/>
<polygon fill="black" stroke="black" points="260,-46.03 256.5,-36.03 253,-46.03 260,-46.03"/>
</g>
<!-- failure&#45;&gt;status -->
<g id="edge18" class="edge">
<title>failure&#45;&gt;status</title>
<path fill="none" stroke="black" d="M980.56,-74.14C977.84,-73.73 975.15,-73.35 972.5,-73 740.29,-42.17 463.2,-27.5 332.23,-21.88"/>
<polygon fill="black" stroke="black" points="332.05,-18.37 321.91,-21.45 331.76,-25.37 332.05,-18.37"/>
</g>
</g>
</svg>
